PathFileType	4	(X/Y/Z)	C:/Users/beibeiliu/ov580/test_trc/capture2\sequence.16_training_dense_left.trc
DataRate	CameraRate	NumFrames	NumMarkers	Units	OrigDataRate	OrigDataStartFrame	OrigNumFrames
120	120	16	19	mm	120	151	400
Frame#	Time	ThumbCMC			ThumbMCP			ThumbIP			ThumbTip			IndexMCP			IndexPIP			IndexTip			MiddleMCP			MiddlePIP			MiddleTip			RingMCP			RingPIP			RingTip			PinkyMCP			PinkyPIP			PinkyTip			BackHand1			BackHand2			BackHand3	
		X0	Y0	Z0	X1	Y1	Z1	X2	Y2	Z2	X3	Y3	Z3	X4	Y4	Z4	X5	Y5	Z5	X6	Y6	Z6	X7	Y7	Z7	X8	Y8	Z8	X9	Y9	Z9	X10	Y10	Z10	X11	Y11	Z11	X12	Y12	Z12	X13	Y13	Z13	X14	Y14	Z14	X15	Y15	Z15	X16	Y16	Z16	X17	Y17	Z17	X18	Y18	Z18	
150	1.25	-138.515	79.574	-22.4883	-126.678	94.8943	-42.355	-121.318	113.636	-54.1639	-115.854	131.21	-66.1241	-170.699	97.4648	-84.6882	-175.856	105.885	-109.951	-187.071	104.522	-133.049	-165.831	70.4504	-100.294	-139.805	52.6236	-109.93	-122.021	43.9152	-83.4263	-164.628	54.1878	-98.4047	-138.707	37.1924	-95.4714	-129.004	36.4606	-64.6793	-174.374	33.6069	-90.9032	-145.195	27.3717	-83.4478	-137.015	33.7294	-51.2889	-191.351	57.4408	-43.2495	-185.878	48.6958	-15.1168	-170.475	80.3665	-24.3668	
151	1.25833	-132.424	83.1619	-23.0408	-124.699	90.9428	-43.7432	-115.359	114.891	-57.6326	-110.25	128.688	-70.2577	-165.947	101.364	-84.3263	-171.142	107.694	-108.811	-181.83	110.388	-134.03	-165.763	74.2073	-98.2138	-141.371	55.0821	-112.632	-123.492	43.9215	-80.8208	-166.114	54.457	-99.7555	-140.526	38.4619	-95.6865	-130.814	35.564	-66.8735	-173.93	40.6464	-91.1156	-148.373	27.7379	-84.648	-140.127	32.4922	-55.1886	-194.126	63.3227	-47.1436	-187.854	53.3735	-16.0868	-169.691	81.549	-29.3754	
152	1.26667	-129.649	81.5993	-24.177	-117.532	88.248	-41.1966	-108.042	109.75	-55.6419	-100.681	124.808	-67.5728	-160.352	106.255	-87.6084	-164.568	113.54	-110.954	-175.718	116.517	-131.609	-163.29	77.6176	-100.84	-140.214	58.1102	-113.412	-126.167	42.8067	-82.8426	-167.833	59.9835	-97.6806	-144.436	39.434	-98.1006	-134.358	37.6083	-63.193	-177.92	41.35	-91.5376	-150.065	32.5272	-85.037	-143.059	37.2789	-55.3206	-190.193	67.9745	-44.5773	-184.517	61.9332	-14.8041	-165.136	84.39	-26.7946	
153	1.275	-128.331	79.7108	-25.2712	-112.718	89.9778	-42.4561	-105.575	106.967	-59.3484	-94.3998	120.604	-68.5815	-158.494	105.067	-86.0654	-162.188	117.041	-113.192	-173.961	120.107	-135.328	-158.668	81.529	-104.393	-141.631	57.0049	-113.835	-125.268	44.8657	-82.8055	-171.096	60.6387	-98.0734	-144.102	39.0167	-97.4356	-134.904	39.0317	-67.8408	-176.805	48.6458	-90.5921	-152.243	31.4364	-83.1761	-145.335	36.9274	-55.0196	-190.252	73.0267	-49.1984	-184.967	63.8498	-14.4538	-162.302	87.4149	-26.289	
154	1.28333	-126.473	80.0959	-26.936	-108.895	91.1879	-45.0914	-97.991	109.513	-61.7154	-91.0214	120.604	-73.7897	-154.371	111.503	-91.4948	-160.937	115.921	-113.382	-169.273	122.255	-133.801	-160.275	81.0255	-103.59	-139.644	58.6208	-114.737	-126.089	44.4103	-81.1421	-167.02	66.4734	-98.1374	-145.796	38.9711	-96.3817	-137.955	39.4358	-65.5584	-179.733	49.865	-91.4745	-152.255	35.4128	-85.8266	-147.548	36.9216	-57.0844	-186.16	77.9195	-47.5551	-182.9	66.1519	-15.3521	-157.426	89.9781	-31.062	
155	1.29167	-123.505	79.1898	-25.6738	-110.994	87.6568	-49.6717	-95.5896	105.011	-62.223	-82.9943	121.099	-73.8385	-148.4	111.797	-89.9307	-153.844	121.059	-114.93	-163.972	127.06	-136.935	-157.321	84.4643	-104.536	-136.972	57.1529	-113.384	-129.067	42.8581	-83.5832	-165.224	67.9903	-100.412	-148.057	40.5835	-99.6736	-138.451	41.0439	-66.0877	-175.776	53.2504	-94.1704	-156.005	34.4667	-85.9364	-147.665	37.7614	-56.431	-184.307	82.6156	-48.4761	-180.952	72.094	-15.3808	-158.479	90.8936	-28.8595	
156	1.3	-121.531	80.4011	-29.7484	-109.309	86.2573	-49.1727	-92.1116	104.414	-63.471	-78.2682	115.147	-72.3239	-150.469	111.584	-93.8743	-153.276	119.599	-115.25	-160.35	127.236	-137.638	-157.006	83.5025	-108.097	-140.714	57.3428	-115.929	-131.573	41.8495	-82.2691	-167.251	65.709	-103.781	-145.116	43.7616	-98.6264	-140.419	42.2326	-65.1631	-178.133	59.0057	-92.0221	-157.7	38.215	-89.0349	-150.392	36.9596	-56.0084	-183.294	84.1989	-51.1249	-178.488	74.8474	-19.6008	-156.118	92.6674	-34.4833	
157	1.30833	-118.053	78.5234	-27.4083	-106.267	81.4586	-47.6817	-89.5729	99.9552	-64.624	-78.7703	111.634	-77.8115	-142.624	113.589	-92.8821	-147.222	119.747	-115.103	-154.841	130.272	-139.421	-157.002	85.838	-105.09	-139.549	57.4345	-116.386	-133.467	42.0187	-80.7482	-168.58	67.2964	-102.436	-148.77	43.9388	-99.0442	-143.371	43.0259	-64.728	-179.132	59.0166	-95.2357	-159.635	38.6991	-89.4514	-150.86	43.5615	-59.0941	-184.313	86.7705	-52.4359	-180.328	76.4523	-20.2831	-149.302	93.8394	-32.0186	
158	1.31667	-119.718	76.9672	-31.6534	-103.191	83.2338	-51.0838	-91.4159	94.8825	-66.1194	-77.1589	106.715	-78.0818	-142.693	113.553	-95.2951	-145.322	121.135	-117.841	-153.628	129.894	-139.02	-152.088	85.4822	-109.866	-142.165	58.7851	-117.964	-136.339	41.2558	-84.732	-166.77	68.1374	-105.763	-149.966	44.2029	-99.9596	-145.721	40.9005	-67.5658	-180.316	60.397	-96.4911	-165.183	37.7168	-88.8938	-155.774	44.3106	-56.4845	-180.589	88.2595	-49.6824	-179.928	79.1323	-19.8828	-148.235	95.534	-33.8691	
159	1.325	-117.936	74.2789	-30.5412	-102.289	82.2052	-52.9459	-88.441	96.3198	-69.3703	-74.6228	105.946	-81.172	-136.278	112.423	-94.195	-142.019	123.229	-121.185	-151.376	128.777	-139.441	-154.576	86.955	-107.438	-145.303	55.2072	-116.389	-137.214	42.5781	-82.6399	-169.079	71.1449	-103.902	-151.355	45.222	-100.829	-146.496	44.884	-67.7451	-179.883	65.1173	-96.2975	-164.226	42.1803	-89.5201	-154.398	43.7999	-60.2567	-180.693	92.6072	-50.1915	-178.994	83.3391	-21.9875	-149.336	95.4553	-36.2786	
160	1.33333	-120.214	72.3813	-31.3349	-104.697	79.1905	-52.7653	-87.0284	92.9801	-69.1643	-71.9129	105.293	-83.0429	-139.529	113.495	-96.8071	-140.233	121.902	-119.042	-148.102	132.11	-143.617	-151.531	86.5548	-110.726	-144.463	56.1647	-116.287	-139.917	44.3292	-79.7005	-168.218	75.3164	-103.543	-156.127	42.3185	-98.7511	-150.222	44.379	-68.8715	-183.533	66.6153	-96.0459	-166.193	40.2559	-87.0914	-155.932	49.1572	-57.8357	-176.097	96.9083	-54.8134	-174.138	84.1908	-22.8994	-145.26	96.5056	-34.5219	
161	1.34167	-120.698	73.0556	-32.8559	-101.773	77.933	-53.3364	-87.9581	91.2532	-71.4732	-71.8951	101.875	-82.7452	-134.159	113.263	-96.8011	-136.183	121.777	-118.902	-146.73	131.376	-145.121	-153.449	88.5225	-107.911	-147.981	57.071	-117.41	-142.275	44.0919	-82.7149	-169.342	74.6798	-107.075	-155.735	47.5891	-102.266	-151.696	47.1832	-67.1721	-184.237	70.1472	-96.2587	-168.115	45.2827	-91.7562	-161.591	47.1387	-59.338	-177.491	97.4088	-56.1214	-179.252	86.1015	-26.0986	-148.99	96.873	-38.0493	
162	1.35	-121.601	73.8363	-34.5259	-102.877	78.0039	-55.2146	-86.0436	87.5324	-69.7351	-74.2468	97.497	-83.1176	-132.943	114.353	-97.7338	-138.675	123.137	-124.232	-144.319	132.829	-146.493	-152.607	88.8583	-112.22	-144.117	56.5669	-117.656	-139.938	45.5797	-84.1	-165.926	75.1594	-108.311	-158.876	47.9639	-102.726	-152.475	46.0333	-70.306	-183.299	70.596	-100.004	-171.164	43.8993	-91.2609	-161.115	51.0258	-57.9786	-177.463	98.5952	-54.589	-177.298	88.6848	-26.6122	-143.575	97.0213	-35.9467	
163	1.35833	-119.411	74.7594	-35.5903	-104.646	75.6242	-53.2394	-84.8334	89.1432	-73.0417	-71.8023	94.7368	-83.1731	-133.025	113.666	-99.6324	-136.8	122.806	-124.495	-141.574	131.89	-144.583	-150.555	90.0417	-112.201	-148.801	60.1754	-119.521	-140.433	46.3739	-86.5967	-168.631	79.2133	-106.394	-158.469	50.4796	-105.818	-149.442	48.56	-71.4665	-181.927	74.1874	-98.1072	-169.532	47.5447	-93.5123	-162.454	50.2313	-63.4767	-177.61	101.443	-54.0214	-174.037	89.5069	-24.3717	-143.02	96.3835	-35.9032	
164	1.36667	-120.819	74.7984	-36.564	-104.282	74.9301	-54.1301	-88.0917	86.6472	-73.3847	-70.0556	93.9939	-83.019	-130.23	115.488	-101.357	-131.376	123.587	-123.905	-138.192	131.243	-144.41	-148.723	93.122	-110.626	-147.799	60.3386	-119.234	-143.368	48.0223	-84.0856	-167.481	80.4979	-107.24	-161.654	49.7855	-105.1	-151.13	48.0595	-74.3862	-184.715	76.1023	-97.9393	-167.623	50.1357	-93.1763	-157.572	54.891	-62.5657	-176.596	101.123	-54.694	-177.747	90.4944	-23.2547	-143.215	99.855	-39.2617	
165	1.375	-118.192	75.147	-36.1746	-104.734	75.2312	-55.1296	-85.4361	86.0303	-73.6664	-69.676	92.9565	-85.5488	-127.598	114.295	-97.5585	-132.194	123.081	-124.933	-137.702	132.26	-145.569	-150.646	92.7953	-111.559	-147.221	59.8679	-118.773	-140.007	48.3036	-86.0827	-163.273	82.3549	-107.781	-157.749	51.1239	-104.105	-150.527	49.3226	-73.6776	-179.773	78.0698	-99.5762	-173.036	50.1858	-94.0193	-160.485	54.7756	-65.3756	-175.912	105.374	-53.9521	-173.306	95.1231	-25.8292	-144.849	101.011	-38.0413	
